<svg xmlns="http://www.w3.org/2000/svg" viewBox="0 0 333333 333333" shape-rendering="geometricPrecision" text-rendering="geometricPrecision" image-rendering="optimizeQuality" fill-rule="evenodd" clip-rule="evenodd"><path d="M166667 2C74626 0 0 74620 0 166667s74620 166667 166667 166667 166667-74620 166667-166667S258714 0 166667 0v2zM41665 166667c0 48193 28746 89832 70460 109561L52497 117122c-6933 15152-10833 31904-10833 49545zm235111-59661c547 3876 837 8039 837 12519 0 12352-2380 26230-9504 43610l-38189 107500c37167-21100 62150-60317 62150-105230 0-21161-5561-41063-15317-58391l26-6-2-2zm-25734 53509c0-15035-5543-25457-10311-33583-6337-10039-12272-18515-12272-28557 0-11189 8711-21610 21002-21610 559 0 1089 67 1624 104-22232-19850-51878-31957-84419-31957-43671 0-82086 21833-104443 54872 2941 87 5709 148 8039 148 13067 0 33317-1543 33317-1543 6728-376 7515 9252 793 10039 0 0-6774 776-14315 1150l45521 131871 27350-79897-19476-51976c-6736-394-13102-1150-13102-1150-6736-394-5935-10415 793-10039 0 0 20646 1543 32911 1543 13067 0 33317-1543 33317-1543 6728-376 7541 9252 793 10039 0 0-6791 776-14315 1152l45165 130875 12482-40557c5396-16856 9522-28937 9522-39358l20-24h2zm-82185 16799l-37506 106147c11472 3280 23368 4955 35309 4955h14c14561 0 28520-2435 41506-6896-356-533-657-1100-906-1685l-38417-102517v-6 2z" fill="#21759b"/></svg>